@startuml GBPC3
title GBPC-3 组合模型
'隐藏Entity标识
hide circle

'entity executor <<泛型>>
entity " <<执行者>> \nExecutor" as executor {
}

entity " <<分组>> \nGroup" as group {
}

entity " <<策略>> \nPolicy" as policy {
  *<<元数据>> meta
  *<<操作>> ops
}

entity " <<会话>> \nSession" as session {
}

entity " <<静态职责分离>> \nSSD" as ssd #70d4ff {
}

entity " <<动态职责分离>> \nDSD" as dsd #fd953b {
}

ssd -- executor
ssd -- group
executor }o-right-o{group:"           "
group }o-right-o{policy:"          "
executor ||--|| session
group }--|| session
group ||--o group
dsd -up- group
dsd -left- session:"                      "
@enduml

